<svg width="1024" height="1024" viewBox="0 0 1024 1024" fill="none" xmlns="http://www.w3.org/2000/svg">
<g clip-path="url(#clip0_105_17)">
<path d="M380.983 338.857C382.743 338.847 382.743 338.847 384.543 338.827C387.773 338.807 390.993 338.807 394.223 338.807C397.713 338.807 401.203 338.787 404.703 338.767C411.533 338.737 418.363 338.727 425.193 338.727C430.743 338.717 436.303 338.717 441.853 338.697C457.643 338.667 473.433 338.647 489.213 338.647C490.063 338.647 490.913 338.647 491.783 338.647C492.633 338.647 493.483 338.647 494.363 338.647C508.143 338.657 521.913 338.617 535.693 338.557C549.863 338.497 564.043 338.477 578.213 338.477C586.163 338.477 594.103 338.467 602.053 338.427C608.823 338.387 615.583 338.377 622.353 338.407C625.793 338.417 629.243 338.417 632.683 338.387C650.853 338.237 665.563 339.417 679.133 352.707C679.653 353.267 680.173 353.817 680.713 354.387C681.473 355.117 681.473 355.117 682.233 355.857C689.443 363.347 693.683 373.967 697.713 383.387C698.943 385.957 700.233 388.487 701.523 391.017C704.013 395.937 706.433 400.877 708.713 405.887C710.793 410.437 712.963 414.927 715.213 419.387C719.073 427.037 722.803 434.737 726.523 442.457C726.833 443.087 727.133 443.717 727.453 444.367C731.713 453.217 735.953 462.067 740.173 470.927C743.203 477.277 746.283 483.607 749.373 489.927C749.793 490.777 750.203 491.627 750.633 492.507C752.723 496.767 754.813 501.027 756.903 505.287C760.923 513.477 764.783 521.707 768.383 530.087C770.653 535.327 773.213 540.267 776.033 545.227C778.343 549.377 779.353 552.637 780.713 557.387C603.503 557.387 426.293 557.387 243.713 557.387C244.663 552.657 246.203 549.317 248.523 545.207C251.303 540.287 253.573 535.367 255.623 530.097C257.643 525.097 260.003 520.257 262.343 515.387C262.833 514.357 263.323 513.317 263.823 512.257C264.293 511.267 264.763 510.287 265.253 509.267C265.673 508.377 266.103 507.487 266.543 506.567C267.713 504.387 267.713 504.387 269.713 502.387C270.373 500.927 270.963 499.427 271.533 497.927C273.663 492.437 276.103 487.137 278.653 481.827C279.073 480.947 279.483 480.067 279.913 479.157C282.323 474.117 284.873 469.187 287.643 464.337C289.233 461.447 290.463 458.437 291.713 455.387C292.353 453.927 293.003 452.477 293.653 451.017C293.983 450.267 294.323 449.517 294.663 448.747C295.013 447.967 295.353 447.197 295.713 446.387C296.463 444.707 297.213 443.017 297.963 441.327C298.543 440.017 299.133 438.707 299.713 437.387C300.373 437.387 301.033 437.387 301.713 437.387C301.843 436.657 301.963 435.927 302.093 435.167C302.693 432.507 303.503 430.377 304.673 427.927C305.263 426.697 305.263 426.697 305.853 425.447C306.263 424.597 306.673 423.757 307.093 422.887C307.493 422.047 307.893 421.207 308.303 420.337C310.273 416.227 312.353 412.297 314.713 408.387C315.313 406.987 315.873 405.567 316.403 404.137C319.433 396.377 323.093 388.897 326.713 381.387C327.063 380.667 327.403 379.947 327.763 379.207C335.723 362.697 344.073 347.757 362.213 341.287C368.573 339.217 374.333 338.817 380.983 338.857Z" fill="#038682"/>
<path d="M373.645 183.26C375.145 183.25 375.145 183.25 376.665 183.25C377.765 183.25 378.855 183.25 379.985 183.25C381.145 183.25 382.315 183.25 383.515 183.24C386.745 183.23 389.975 183.23 393.215 183.23C396.695 183.23 400.185 183.22 403.665 183.22C411.295 183.2 418.915 183.2 426.545 183.19C431.305 183.19 436.065 183.18 440.825 183.18C454.015 183.17 467.205 183.16 480.395 183.15C481.665 183.15 481.665 183.15 482.955 183.15C483.795 183.15 484.645 183.15 485.515 183.15C487.235 183.15 488.945 183.15 490.655 183.15C491.935 183.15 491.935 183.15 493.235 183.15C507.005 183.15 520.785 183.13 534.555 183.11C548.705 183.08 562.845 183.07 576.995 183.07C584.935 183.07 592.875 183.06 600.815 183.04C607.575 183.03 614.335 183.02 621.105 183.03C624.555 183.04 627.995 183.03 631.445 183.02C635.195 183.01 638.935 183.01 642.685 183.02C643.765 183.02 644.845 183.01 645.955 183C652.685 183.04 658.395 184.09 664.715 186.39C664.715 187.05 664.715 187.71 664.715 188.39C665.375 188.6 666.035 188.8 666.715 189.02C675.035 192.83 681.025 198.76 684.485 207.29C687.195 215.18 687.185 222.99 687.185 231.22C687.195 232.75 687.195 234.27 687.205 235.8C687.215 238.98 687.225 242.16 687.215 245.34C687.205 249.38 687.235 253.42 687.285 257.46C687.305 260.61 687.305 263.75 687.305 266.89C687.305 268.38 687.315 269.87 687.335 271.36C687.475 284.03 685.195 295.48 676.785 305.39C666.705 315.11 655.285 317.85 641.685 317.78C639.925 317.79 639.925 317.79 638.125 317.8C634.895 317.81 631.665 317.81 628.435 317.8C624.945 317.79 621.445 317.81 617.955 317.82C611.115 317.83 604.285 317.83 597.445 317.83C591.895 317.83 586.335 317.83 580.775 317.83C579.985 317.83 579.195 317.83 578.375 317.83C576.765 317.84 575.155 317.84 573.545 317.84C558.475 317.85 543.395 317.85 528.315 317.84C514.535 317.83 500.745 317.84 486.965 317.86C472.795 317.89 458.625 317.9 444.465 317.89C436.515 317.89 428.565 317.89 420.615 317.91C413.855 317.92 407.085 317.92 400.325 317.9C396.875 317.9 393.425 317.89 389.975 317.91C386.235 317.92 382.485 317.91 378.745 317.89C377.665 317.9 376.585 317.91 375.475 317.92C364.445 317.81 355.645 314.07 347.715 306.39C337.895 295.19 336.095 282.92 336.185 268.51C336.185 267.01 336.175 265.51 336.175 264C336.165 260.87 336.175 257.74 336.195 254.61C336.215 250.63 336.205 246.65 336.175 242.66C336.165 239.56 336.165 236.47 336.175 233.37C336.185 231.9 336.175 230.43 336.165 228.97C336.095 215.11 338.755 204.61 348.525 194.52C355.555 187.93 363.885 183.27 373.645 183.26Z" fill="#038683"/>
<path d="M241.714 578.391C420.244 578.391 598.774 578.391 782.714 578.391C782.714 626.361 782.714 626.361 773.714 639.391C773.134 640.281 772.564 641.161 771.964 642.081C761.404 652.931 747.924 657.551 733.054 657.771C729.644 657.801 726.234 657.791 722.824 657.781C720.914 657.781 719.004 657.791 717.094 657.791C711.884 657.811 706.664 657.801 701.454 657.801C695.814 657.791 690.184 657.801 684.554 657.811C673.524 657.831 662.494 657.831 651.464 657.831C642.504 657.821 633.534 657.831 624.574 657.831C622.654 657.831 622.654 657.831 620.704 657.831C618.114 657.831 615.514 657.841 612.924 657.841C595.514 657.851 578.104 657.851 560.694 657.841C560.014 657.841 559.334 657.841 558.624 657.841C553.104 657.841 547.584 657.841 542.054 657.841C520.514 657.821 498.964 657.831 477.424 657.861C453.194 657.881 428.974 657.901 404.744 657.891C391.924 657.881 379.104 657.891 366.284 657.901C355.374 657.921 344.454 657.921 333.544 657.901C327.984 657.891 322.414 657.891 316.854 657.911C311.754 657.921 306.654 657.921 301.554 657.901C299.714 657.891 297.874 657.901 296.034 657.911C279.864 657.991 266.804 655.771 254.534 644.361C236.444 625.481 241.714 604.881 241.714 578.391Z" fill="#048783"/>
<path d="M385.714 228.391C468.874 228.391 552.034 228.391 637.714 228.391C637.714 243.571 637.714 258.751 637.714 274.391C554.554 274.391 471.394 274.391 385.714 274.391C385.714 259.211 385.714 244.031 385.714 228.391Z" fill="#F2F6F5"/>
<path d="M417.449 475.188C418.319 475.178 419.189 475.178 420.089 475.168C421.929 475.158 423.779 475.158 425.629 475.148C428.439 475.138 431.249 475.108 434.069 475.078C435.859 475.068 437.659 475.068 439.449 475.068C440.289 475.048 441.129 475.038 441.989 475.028C446.969 475.048 450.429 475.578 454.719 478.388C457.599 482.718 457.199 486.608 457.279 491.708C457.349 493.108 457.349 493.108 457.429 494.548C457.439 495.458 457.459 496.378 457.469 497.318C457.489 498.148 457.519 498.978 457.539 499.828C456.199 503.998 453.469 506.248 449.719 508.388C446.529 509.198 443.509 509.208 440.239 509.148C438.909 509.158 438.909 509.158 437.549 509.168C435.679 509.158 433.809 509.148 431.949 509.118C429.089 509.078 426.239 509.098 423.389 509.128C421.569 509.118 419.749 509.108 417.929 509.088C417.079 509.098 416.229 509.108 415.349 509.108C410.969 509.008 409.239 508.808 405.699 505.968C402.049 501.228 402.459 497.398 402.399 491.578C402.369 490.678 402.349 489.768 402.319 488.838C402.269 484.508 402.289 482.078 404.609 478.318C408.569 474.698 412.329 475.218 417.449 475.188Z" fill="#F5F7F7"/>
<path d="M417.667 425.153C418.557 425.143 419.457 425.133 420.377 425.133C422.267 425.113 424.157 425.103 426.057 425.093C428.937 425.083 431.827 425.033 434.707 424.993C436.547 424.983 438.387 424.973 440.227 424.963C441.087 424.943 441.947 424.933 442.837 424.913C448.417 424.933 451.427 425.743 455.717 429.393C457.587 433.143 456.987 437.633 457.027 441.763C457.057 442.723 457.087 443.683 457.117 444.673C457.177 451.723 457.177 451.723 454.947 454.933C451.487 457.193 448.857 458.633 444.667 458.693C443.487 458.723 443.487 458.723 442.287 458.743C441.447 458.753 440.617 458.753 439.747 458.763C438.447 458.773 438.447 458.773 437.107 458.793C435.277 458.803 433.437 458.813 431.597 458.813C428.787 458.833 425.987 458.873 423.177 458.933C421.387 458.933 419.597 458.943 417.807 458.953C416.977 458.973 416.137 458.993 415.277 459.013C410.947 458.973 409.237 458.793 405.707 456.043C402.107 451.253 402.467 446.763 402.397 441.013C402.377 440.163 402.347 439.313 402.317 438.443C402.267 434.233 402.337 431.993 404.607 428.353C408.587 424.643 412.477 425.193 417.667 425.153Z" fill="#F3F7F6"/>
<path d="M500.277 474.657C501.187 474.647 502.097 474.637 503.037 474.627C504.947 474.617 506.867 474.617 508.777 474.627C511.707 474.637 514.627 474.587 517.547 474.537C519.417 474.527 521.287 474.527 523.157 474.537C524.457 474.497 524.457 474.497 525.787 474.467C529.327 474.537 531.747 474.657 534.617 476.847C537.447 479.947 539.477 482.687 539.477 487.017C539.477 487.827 539.487 488.637 539.487 489.467C539.457 490.287 539.427 491.107 539.397 491.957C539.417 492.777 539.427 493.607 539.447 494.447C539.387 498.677 539.027 501.557 536.357 504.917C530.537 510.367 521.247 508.697 513.677 508.737C511.787 508.757 509.897 508.787 508.017 508.827C505.297 508.877 502.567 508.897 499.847 508.917C499.007 508.937 498.167 508.957 497.307 508.987C492.867 508.967 491.257 508.837 487.707 505.917C487.047 505.087 486.387 504.247 485.717 503.387C485.387 503.057 485.057 502.727 484.717 502.387C484.347 498.817 484.347 495.227 484.277 491.637C484.227 490.637 484.187 489.637 484.137 488.607C484.127 487.627 484.107 486.657 484.097 485.657C484.067 484.767 484.047 483.877 484.017 482.967C484.857 479.867 486.257 478.287 488.807 476.367C492.467 474.487 496.237 474.637 500.277 474.657Z" fill="#F5F7F7"/>
<path d="M580.996 474.798C581.886 474.798 582.776 474.798 583.696 474.798C585.576 474.808 587.456 474.818 589.336 474.848C592.206 474.888 595.076 474.888 597.946 474.888C599.776 474.898 601.606 474.908 603.436 474.918C604.286 474.928 605.146 474.928 606.026 474.928C611.776 475.038 615.166 476.058 619.496 480.028C621.386 483.688 621.186 487.208 621.156 491.268C621.186 492.448 621.186 492.448 621.216 493.658C621.206 499.018 620.356 502.208 616.716 506.388C613.956 508.058 611.876 508.648 608.666 508.678C607.886 508.698 607.096 508.708 606.296 508.718C605.456 508.728 604.616 508.728 603.746 508.728C602.446 508.738 602.446 508.738 601.116 508.748C599.276 508.758 597.436 508.758 595.596 508.758C592.786 508.768 589.986 508.808 587.176 508.838C585.386 508.848 583.596 508.848 581.816 508.848C580.556 508.878 580.556 508.878 579.276 508.898C575.226 508.868 573.216 508.708 569.706 506.488C565.566 502.138 566.416 497.308 566.336 491.578C566.306 490.578 566.266 489.578 566.226 488.558C566.206 487.098 566.206 487.098 566.196 485.618C566.176 484.738 566.156 483.858 566.136 482.948C567.956 474.938 574.116 474.668 580.996 474.798Z" fill="#F5F7F7"/>
<path d="M499.414 425.153C500.284 425.143 501.154 425.133 502.044 425.133C503.884 425.113 505.734 425.103 507.574 425.093C510.374 425.083 513.174 425.033 515.974 424.993C517.774 424.983 519.564 424.973 521.354 424.963C522.604 424.943 522.604 424.943 523.874 424.913C529.624 424.933 532.994 426.063 537.714 429.393C539.524 433.013 538.984 437.213 539.024 441.203C539.054 442.103 539.084 443.013 539.114 443.943C539.154 448.173 539.124 450.693 536.944 454.403C533.684 457.313 531.054 458.633 526.664 458.693C525.494 458.723 525.494 458.723 524.294 458.743C523.454 458.753 522.614 458.753 521.754 458.763C520.444 458.773 520.444 458.773 519.114 458.793C517.274 458.803 515.434 458.813 513.594 458.813C510.794 458.833 507.984 458.873 505.174 458.933C503.394 458.933 501.604 458.943 499.814 458.953C498.974 458.973 498.144 458.993 497.274 459.013C492.904 458.973 491.244 458.813 487.704 455.983C484.054 451.233 484.464 447.403 484.404 441.583C484.374 440.673 484.344 439.773 484.314 438.843C484.274 434.513 484.294 432.073 486.614 428.313C490.554 424.713 494.304 425.193 499.414 425.153Z" fill="#F4F7F6"/>
<path d="M582.363 425.188C583.213 425.178 584.063 425.178 584.933 425.168C586.733 425.158 588.533 425.158 590.333 425.148C593.073 425.138 595.813 425.108 598.563 425.078C600.303 425.068 602.053 425.068 603.803 425.068C604.623 425.048 605.433 425.038 606.283 425.028C611.943 425.048 615.223 426.128 619.503 430.018C621.383 433.708 621.153 437.248 621.093 441.328C621.103 442.128 621.113 442.928 621.123 443.748C621.103 448.418 620.843 451.688 617.713 455.388C613.193 458.938 609.153 458.848 603.653 458.828C602.353 458.828 602.353 458.828 601.023 458.838C599.183 458.848 597.353 458.848 595.523 458.838C592.723 458.828 589.923 458.858 587.133 458.888C585.343 458.888 583.563 458.888 581.773 458.888C580.523 458.908 580.523 458.908 579.253 458.918C575.253 458.878 573.193 458.678 569.713 456.548C565.623 452.128 566.463 446.638 566.403 440.958C566.373 439.998 566.343 439.048 566.313 438.058C566.253 431.048 566.253 431.048 568.543 427.798C572.953 424.938 577.293 425.218 582.363 425.188Z" fill="#F3F7F6"/>
<path d="M499.839 374.798C500.709 374.798 501.569 374.798 502.459 374.798C504.279 374.808 506.109 374.818 507.929 374.848C510.709 374.888 513.479 374.888 516.259 374.888C518.039 374.898 519.809 374.908 521.589 374.918C522.419 374.928 523.239 374.928 524.089 374.928C529.009 375.028 532.479 375.638 536.719 378.388C539.469 382.528 539.079 385.848 539.089 390.708C539.109 391.548 539.139 392.388 539.159 393.258C539.189 398.778 538.509 402.098 534.719 406.388C530.869 409.148 526.459 408.678 521.929 408.658C521.079 408.658 520.229 408.658 519.359 408.668C517.559 408.668 515.769 408.658 513.969 408.648C511.219 408.638 508.479 408.648 505.729 408.668C503.989 408.668 502.239 408.658 500.499 408.658C499.679 408.658 498.859 408.668 498.009 408.668C490.839 408.608 490.839 408.608 487.719 406.388C483.749 401.838 484.159 396.618 484.149 390.888C484.119 389.958 484.079 389.018 484.039 388.048C484.039 387.148 484.029 386.238 484.019 385.298C484.009 384.478 483.999 383.658 483.989 382.808C484.879 379.828 486.379 378.238 488.839 376.368C492.369 374.528 495.929 374.718 499.839 374.798Z" fill="#F4F6F6"/>
<path d="M417.546 375.091C418.416 375.091 419.286 375.081 420.176 375.081C422.016 375.071 423.856 375.071 425.696 375.081C428.506 375.081 431.306 375.051 434.116 375.031C435.906 375.031 437.696 375.031 439.486 375.031C440.316 375.021 441.156 375.011 442.016 375.001C446.976 375.041 450.436 375.601 454.716 378.391C457.476 382.541 457.046 385.891 457.026 390.771C457.046 391.621 457.056 392.471 457.076 393.341C457.076 398.141 456.976 401.601 453.716 405.391C449.196 408.931 445.146 408.861 439.656 408.861C438.786 408.871 437.916 408.871 437.016 408.881C435.186 408.891 433.356 408.901 431.526 408.891C428.726 408.891 425.926 408.931 423.126 408.981C421.346 408.981 419.556 408.981 417.776 408.981C416.946 409.001 416.106 409.021 415.246 409.031C410.886 408.981 409.226 408.811 405.706 405.981C402.126 401.331 402.496 397.771 402.466 392.081C402.446 391.221 402.426 390.371 402.406 389.491C402.376 384.641 402.496 381.281 405.716 377.391C409.636 374.781 412.996 375.091 417.546 375.091Z" fill="#F3F6F6"/>
<path d="M581.839 374.798C582.709 374.798 583.569 374.798 584.459 374.798C586.279 374.808 588.109 374.818 589.929 374.848C592.709 374.888 595.479 374.888 598.259 374.888C600.039 374.898 601.809 374.908 603.589 374.918C604.419 374.928 605.239 374.928 606.089 374.928C611.019 375.028 614.419 375.708 618.719 378.388C621.679 381.958 621.049 386.918 621.029 391.328C621.039 392.128 621.059 392.928 621.079 393.748C621.079 398.428 620.859 401.678 617.719 405.388C613.219 408.908 609.299 408.818 603.839 408.758C602.559 408.758 602.559 408.758 601.259 408.758C599.469 408.758 597.679 408.748 595.889 408.728C593.159 408.708 590.419 408.708 587.689 408.718C585.939 408.708 584.199 408.698 582.459 408.688C581.639 408.698 580.829 408.698 579.989 408.698C572.839 408.608 572.839 408.608 569.719 406.388C565.749 401.838 566.159 396.618 566.149 390.888C566.119 389.958 566.079 389.018 566.039 388.048C566.039 387.148 566.029 386.238 566.019 385.298C566.009 384.478 565.999 383.658 565.989 382.808C566.879 379.828 568.379 378.238 570.839 376.368C574.369 374.528 577.929 374.718 581.839 374.798Z" fill="#F3F6F5"/>
<path d="M581.171 474.903C582.521 474.913 582.521 474.913 583.911 474.923C586.781 474.953 589.651 475.013 592.531 475.083C594.481 475.103 596.431 475.123 598.381 475.143C603.161 475.203 607.941 475.293 612.711 475.393C612.711 475.723 612.711 476.053 612.711 476.393C599.511 476.393 586.311 476.393 572.711 476.393C572.051 477.713 571.391 479.033 570.711 480.393C570.051 481.053 569.391 481.713 568.711 482.393C568.341 484.523 568.341 484.523 568.301 486.963C568.261 487.853 568.221 488.753 568.181 489.673C568.151 490.613 568.121 491.553 568.091 492.513C568.051 493.463 568.011 494.403 567.971 495.383C567.881 497.713 567.791 500.053 567.711 502.393C567.381 502.393 567.051 502.393 566.711 502.393C566.571 498.833 566.481 495.263 566.401 491.703C566.361 490.693 566.321 489.693 566.271 488.653C566.261 487.673 566.241 486.703 566.221 485.693C566.201 484.793 566.171 483.903 566.151 482.983C567.941 474.823 574.231 474.693 581.171 474.903Z" fill="#CEECEC"/>
<path d="M351.714 347.391C352.374 347.721 353.034 348.051 353.714 348.391C348.834 354.291 343.544 359.421 337.714 364.391C337.714 360.351 339.194 359.391 341.904 356.451C342.674 355.601 343.454 354.741 344.254 353.861C346.614 351.491 349.054 349.421 351.714 347.391Z" fill="#258E8E"/>
<path d="M490.714 476.391C489.564 478.861 488.664 480.441 486.714 482.391C486.344 484.521 486.344 484.521 486.304 486.961C486.264 487.861 486.224 488.751 486.184 489.681C486.154 490.611 486.124 491.551 486.094 492.511C486.054 493.461 486.014 494.401 485.974 495.381C485.874 497.721 485.794 500.051 485.714 502.391C485.384 502.391 485.054 502.391 484.714 502.391C484.594 498.811 484.524 495.221 484.464 491.641C484.434 490.621 484.394 489.611 484.364 488.561C484.264 481.031 484.264 481.031 486.604 477.691C488.714 476.391 488.714 476.391 490.714 476.391Z" fill="#D7EEEF"/>
<path d="M490.714 376.391C489.564 378.861 488.664 380.441 486.714 382.391C486.344 384.421 486.344 384.421 486.304 386.741C486.264 387.591 486.224 388.441 486.184 389.321C486.154 390.211 486.124 391.101 486.094 392.011C486.054 392.911 486.014 393.811 485.974 394.731C485.874 396.951 485.794 399.171 485.714 401.391C485.384 401.391 485.054 401.391 484.714 401.391C484.594 397.971 484.524 394.561 484.464 391.141C484.434 390.171 484.394 389.201 484.364 388.211C484.264 381.031 484.264 381.031 486.604 377.721C488.714 376.391 488.714 376.391 490.714 376.391Z" fill="#D2EBEC"/>
<path d="M408.714 476.391C407.564 478.861 406.664 480.441 404.714 482.391C404.344 484.421 404.344 484.421 404.304 486.741C404.264 487.591 404.224 488.441 404.184 489.321C404.154 490.211 404.124 491.101 404.094 492.011C404.054 492.911 404.014 493.811 403.974 494.731C403.874 496.951 403.794 499.171 403.714 501.391C403.384 501.391 403.054 501.391 402.714 501.391C402.594 498.161 402.524 494.931 402.464 491.701C402.434 490.791 402.394 489.881 402.364 488.941C402.294 484.551 402.304 482.081 404.604 478.251C406.714 476.391 406.714 476.391 408.714 476.391Z" fill="#CBEAE8"/>
<path d="M490.714 426.391C489.564 428.861 488.664 430.441 486.714 432.391C486.344 434.421 486.344 434.421 486.304 436.741C486.264 437.591 486.224 438.441 486.184 439.321C486.154 440.211 486.124 441.101 486.094 442.011C486.054 442.911 486.014 443.811 485.974 444.731C485.874 446.951 485.794 449.171 485.714 451.391C485.384 451.391 485.054 451.391 484.714 451.391C484.594 448.161 484.524 444.931 484.464 441.701C484.434 440.791 484.394 439.881 484.364 438.941C484.294 434.551 484.304 432.081 486.604 428.251C488.714 426.391 488.714 426.391 490.714 426.391Z" fill="#D3EDED"/>
<path d="M774.714 637.391C775.414 639.161 775.414 639.161 775.714 641.391C774.424 643.281 774.424 643.281 772.524 645.081C771.914 645.681 771.304 646.281 770.674 646.901C768.644 648.451 767.204 648.981 764.714 649.391C765.104 648.941 765.484 648.501 765.884 648.031C768.894 644.541 771.854 641.021 774.714 637.391Z" fill="#C7E9E6"/>
<path d="M538.714 382.391C539.044 382.391 539.374 382.391 539.714 382.391C539.714 389.321 539.714 396.251 539.714 403.391C538.724 403.721 537.734 404.051 536.714 404.391C536.874 403.821 537.034 403.251 537.194 402.661C537.704 400.421 537.914 398.361 538.034 396.061C538.074 395.261 538.114 394.461 538.154 393.641C538.214 392.401 538.214 392.401 538.274 391.141C538.324 390.301 538.364 389.461 538.404 388.591C538.514 386.531 538.614 384.461 538.714 382.391Z" fill="#24878B"/>
<path d="M490.714 476.391C489.274 479.761 487.384 481.901 484.714 484.391C485.094 481.611 485.384 479.801 487.154 477.581C488.714 476.391 488.714 476.391 490.714 476.391Z" fill="#C5E4E6"/>
<path d="M189.451 701.261H210.179V738.321L239.402 701.261H264.085L226.438 749.308L267.747 809H243.431L210.179 761.173V809H189.451V701.261ZM339.012 729.312H358.934V809H339.012V800.577C335.105 804.288 331.175 806.974 327.22 808.634C323.313 810.245 319.065 811.051 314.476 811.051C304.173 811.051 295.262 807.071 287.742 799.112C280.223 791.104 276.463 781.168 276.463 769.303C276.463 756.998 280.101 746.915 287.376 739.054C294.651 731.192 303.489 727.262 313.89 727.262C318.675 727.262 323.167 728.165 327.366 729.972C331.565 731.778 335.447 734.488 339.012 738.102V729.312ZM317.991 745.719C311.79 745.719 306.639 747.916 302.537 752.311C298.436 756.656 296.385 762.247 296.385 769.083C296.385 775.968 298.46 781.632 302.61 786.075C306.81 790.519 311.961 792.74 318.064 792.74C324.363 792.74 329.588 790.567 333.738 786.222C337.889 781.827 339.964 776.09 339.964 769.01C339.964 762.076 337.889 756.461 333.738 752.164C329.588 747.867 324.339 745.719 317.991 745.719ZM427.928 740.445L415.55 752.823C410.521 747.843 405.955 745.353 401.854 745.353C399.607 745.353 397.85 745.841 396.58 746.817C395.311 747.745 394.676 748.917 394.676 750.333C394.676 751.407 395.066 752.408 395.848 753.336C396.678 754.215 398.68 755.436 401.854 756.998L409.178 760.66C416.893 764.469 422.19 768.351 425.071 772.306C427.952 776.261 429.393 780.899 429.393 786.222C429.393 793.302 426.78 799.21 421.556 803.946C416.38 808.683 409.422 811.051 400.682 811.051C389.061 811.051 379.783 806.51 372.85 797.428L385.154 784.024C387.498 786.759 390.232 788.98 393.357 790.689C396.531 792.35 399.339 793.18 401.78 793.18C404.417 793.18 406.541 792.545 408.152 791.275C409.764 790.006 410.569 788.541 410.569 786.881C410.569 783.805 407.664 780.802 401.854 777.872L395.115 774.503C382.225 768.009 375.779 759.879 375.779 750.113C375.779 743.814 378.196 738.443 383.03 734C387.913 729.508 394.139 727.262 401.707 727.262C406.883 727.262 411.741 728.409 416.282 730.704C420.872 732.95 424.754 736.197 427.928 740.445ZM503.88 715.909L488.719 729.312C483.396 721.891 477.977 718.18 472.459 718.18C469.773 718.18 467.576 718.912 465.867 720.377C464.158 721.793 463.304 723.404 463.304 725.211C463.304 727.018 463.914 728.727 465.135 730.338C466.795 732.486 471.8 737.101 480.149 744.181C487.962 750.724 492.698 754.85 494.358 756.559C498.509 760.758 501.438 764.786 503.147 768.644C504.905 772.452 505.784 776.627 505.784 781.168C505.784 790.006 502.732 797.306 496.629 803.067C490.525 808.829 482.566 811.71 472.752 811.71C465.086 811.71 458.396 809.83 452.684 806.07C447.02 802.311 442.161 796.402 438.108 788.346L455.32 777.945C460.496 787.467 466.453 792.228 473.191 792.228C476.707 792.228 479.661 791.202 482.054 789.151C484.446 787.101 485.643 784.732 485.643 782.047C485.643 779.605 484.739 777.164 482.933 774.723C481.126 772.281 477.146 768.546 470.994 763.517C459.275 753.946 451.707 746.573 448.289 741.397C444.871 736.173 443.162 730.973 443.162 725.797C443.162 718.326 445.994 711.93 451.658 706.607C457.371 701.236 464.402 698.551 472.752 698.551C478.123 698.551 483.226 699.796 488.06 702.286C492.942 704.776 498.216 709.317 503.88 715.909ZM523.143 729.312H543.211V738.468C546.629 734.708 550.413 731.9 554.563 730.045C558.763 728.189 563.328 727.262 568.26 727.262C573.24 727.262 577.732 728.482 581.736 730.924C585.74 733.365 588.963 736.93 591.404 741.617C594.578 736.93 598.46 733.365 603.05 730.924C607.688 728.482 612.742 727.262 618.211 727.262C623.875 727.262 628.855 728.58 633.152 731.217C637.449 733.854 640.525 737.296 642.381 741.544C644.285 745.792 645.237 752.701 645.237 762.271V809H625.096V768.57C625.096 759.537 623.973 753.434 621.727 750.26C619.48 747.037 616.111 745.426 611.619 745.426C608.201 745.426 605.125 746.402 602.391 748.355C599.705 750.309 597.703 753.019 596.385 756.485C595.066 759.903 594.407 765.421 594.407 773.038V809H574.266V770.401C574.266 763.272 573.729 758.121 572.654 754.947C571.629 751.725 570.066 749.332 567.967 747.77C565.867 746.207 563.328 745.426 560.35 745.426C557.029 745.426 554.002 746.427 551.268 748.429C548.582 750.382 546.556 753.141 545.188 756.705C543.87 760.27 543.211 765.885 543.211 773.551V809H523.143V729.312ZM723.24 729.312H743.162V809H723.24V800.577C719.334 804.288 715.403 806.974 711.448 808.634C707.542 810.245 703.294 811.051 698.704 811.051C688.401 811.051 679.49 807.071 671.971 799.112C664.451 791.104 660.691 781.168 660.691 769.303C660.691 756.998 664.329 746.915 671.604 739.054C678.88 731.192 687.718 727.262 698.118 727.262C702.903 727.262 707.396 728.165 711.595 729.972C715.794 731.778 719.676 734.488 723.24 738.102V729.312ZM702.22 745.719C696.019 745.719 690.867 747.916 686.766 752.311C682.664 756.656 680.613 762.247 680.613 769.083C680.613 775.968 682.688 781.632 686.839 786.075C691.038 790.519 696.189 792.74 702.293 792.74C708.592 792.74 713.816 790.567 717.967 786.222C722.117 781.827 724.192 776.09 724.192 769.01C724.192 762.076 722.117 756.461 717.967 752.164C713.816 747.867 708.567 745.719 702.22 745.719ZM758.689 729.312H775.828V739.347C777.684 735.392 780.149 732.389 783.226 730.338C786.302 728.287 789.671 727.262 793.333 727.262C795.921 727.262 798.631 727.945 801.463 729.312L795.237 746.524C792.894 745.353 790.965 744.767 789.451 744.767C786.375 744.767 783.763 746.671 781.614 750.479C779.515 754.288 778.465 761.759 778.465 772.892L778.538 776.773V809H758.689V729.312ZM813.841 699.942H833.763V729.312H845.628V746.524H833.763V809H813.841V746.524H803.587V729.312H813.841V699.942Z" fill="#048783"/>
</g>
<defs>
<clipPath id="clip0_105_17">
<rect width="1024" height="1024" fill="white"/>
</clipPath>
</defs>
</svg>
